<svg xmlns="http://www.w3.org/2000/svg" width="146.748" height="49.502" viewBox="0 0 146.748 49.502">
  <path id="Path_7" data-name="Path 7" d="M20.9-3.672a10.232,10.232,0,0,1-1.562,4.688,12.337,12.337,0,0,1-3.379,3.5A15.6,15.6,0,0,1,11.328,6.68a19.107,19.107,0,0,1-5.312.742,12.343,12.343,0,0,1-1.895-.137,13.959,13.959,0,0,1-1.582-.332q-.7-.2-1.191-.371a4.328,4.328,0,0,1-.684-.293A1.732,1.732,0,0,1,.1,5.8a1.6,1.6,0,0,1-.254-.84A4.2,4.2,0,0,1-.2,4.473,1.894,1.894,0,0,1-.156,4.1q.039-.2.137-.527t.254-.918Q.312,2.3.84.449t1.27-4.531q.742-2.676,1.621-5.8t1.7-6.055q.82-2.93,1.484-5.293t.977-3.5q-.547.391-1.074.82t-1.074.938A1.151,1.151,0,0,1,4.59-22.6a1.28,1.28,0,0,1-.8-.957,7.771,7.771,0,0,1-.117-.82,3.367,3.367,0,0,1,.02-.8,2.5,2.5,0,0,1,.293-.879A22.536,22.536,0,0,1,6.5-27.383q1.23-.547,2.363-.977a3.326,3.326,0,0,1,.527-1.016A1.5,1.5,0,0,1,10-29.844a1.419,1.419,0,0,1,.664-.078q.352.039.742.117a1.987,1.987,0,0,1,1.133.547q.547-.078,1.055-.117t1.055-.039a11.988,11.988,0,0,1,3.945.586,7.737,7.737,0,0,1,2.754,1.582,5.741,5.741,0,0,1,1.543,2.324,6.76,6.76,0,0,1,.352,2.813,9.316,9.316,0,0,1-.684,2.676,14.191,14.191,0,0,1-1.5,2.734,20.1,20.1,0,0,1-2.187,2.617,19.28,19.28,0,0,1-2.773,2.324,10.415,10.415,0,0,1,2.148,1.641A9.616,9.616,0,0,1,19.8-8.086a8.5,8.5,0,0,1,.9,2.227A7.065,7.065,0,0,1,20.9-3.672Zm-12.93-9.57q-.078.391-.176.781t-.215.82a4.24,4.24,0,0,1,1.582-.937,5.909,5.909,0,0,1,2.129-.43,9.2,9.2,0,0,1,1.055.059q.508.059.977.137a10.74,10.74,0,0,0,2.109-1.816,14.916,14.916,0,0,0,1.777-2.383,15.319,15.319,0,0,0,1.25-2.6,10.246,10.246,0,0,0,.605-2.461,5.21,5.21,0,0,0-.918-4,4.116,4.116,0,0,0-3.262-1.309,9.252,9.252,0,0,0-2.93.508q-.312,1.016-.781,2.52t-1,3.3q-.527,1.8-1.113,3.789T7.969-13.242ZM7.3-10.664q-.547,2.109-1.094,4.57Q5.7-3.984,5.117-1.191L3.867,4.766a1.384,1.384,0,0,0,.625.273l.781.156a5.25,5.25,0,0,0,.938.078,9.623,9.623,0,0,0,3.574-.723A11.558,11.558,0,0,0,13.125,2.5,11.613,11.613,0,0,0,15.684-.723a10.563,10.563,0,0,0,1.23-4.238,5.887,5.887,0,0,0-.137-1.895,5.676,5.676,0,0,0-.625-1.523,6.249,6.249,0,0,0-.937-1.211,7.309,7.309,0,0,0-1.113-.918,21.594,21.594,0,0,1-3.945,1.641,2.3,2.3,0,0,1-1.211.059,2.225,2.225,0,0,1-.859-.43,2.116,2.116,0,0,1-.547-.684A2.218,2.218,0,0,1,7.3-10.664ZM22.813-.2a1.373,1.373,0,0,1-.605.566.778.778,0,0,1-.586.039A.545.545,0,0,1,21.289,0a1.166,1.166,0,0,1,.156-.781l.527-1.055q.41-.82.977-1.973t1.23-2.5q.664-1.348,1.27-2.559t1.113-2.168q.508-.957.742-1.387-.43-.391-.586-.566a1.566,1.566,0,0,1-.234-.762,2.742,2.742,0,0,1,.234-1.328,7.949,7.949,0,0,1,.82-1.582,6.559,6.559,0,0,1,1.133-1.309,1.874,1.874,0,0,1,1.211-.547,1.688,1.688,0,0,1,1.543.7,3.312,3.312,0,0,1,.527,1.445,3.816,3.816,0,0,1-.078,1.289,3.752,3.752,0,0,1-.586,1.406,2.988,2.988,0,0,0,.313.176,1.482,1.482,0,0,0,.625.1,3.384,3.384,0,0,0,.879-.078,2.967,2.967,0,0,1,.8-.078A1.737,1.737,0,0,1,35-13.223a2.677,2.677,0,0,1,.7.82,4.13,4.13,0,0,1,.41,1.055,6.887,6.887,0,0,1,.176,1.035,3.2,3.2,0,0,1-.508,2.031q-.625,1.055-1.523,2.3-.547.781-1.094,1.758A3.032,3.032,0,0,0,32.7-2.461a2.168,2.168,0,0,0,.273.82q.2.313,1.094.313a2.868,2.868,0,0,0,1.465-.488,10.973,10.973,0,0,0,1.641-1.25,22.545,22.545,0,0,0,1.66-1.68q.82-.918,1.523-1.8t1.191-1.582q.488-.7.723-1.016a1.012,1.012,0,0,1,.508-.43.664.664,0,0,1,.547,0,.589.589,0,0,1,.293.469,1.5,1.5,0,0,1-.293.938q-.234.391-.8,1.25T41.152-5q-.8,1.055-1.777,2.168A20.1,20.1,0,0,1,37.324-.8,12.659,12.659,0,0,1,35.176.7a4.291,4.291,0,0,1-2.051.586A3.272,3.272,0,0,1,31.445.9a3.483,3.483,0,0,1-1.074-.957,3.67,3.67,0,0,1-.586-1.25,4.029,4.029,0,0,1-.137-1.27,3.4,3.4,0,0,1,.254-1q.215-.527.508-1.094T31.035-5.8q.332-.566.605-1.113.664-1.133,1.074-1.934a3.105,3.105,0,0,0,.41-1.348,1.237,1.237,0,0,0-.156-.625.54.54,0,0,0-.508-.273,1.93,1.93,0,0,0-.332.02.994.994,0,0,1-.2.02,2.646,2.646,0,0,0-.273.02,5.207,5.207,0,0,1-.527.02,2.112,2.112,0,0,1-.859-.156,4.086,4.086,0,0,0-.664-.234q-.156.273-.7,1.172t-1.27,2.109q-.723,1.211-1.523,2.539t-1.5,2.48L23.418-1.152Q22.93-.352,22.813-.2ZM60.586-7.773q-.547.781-1.406,1.934T57.4-3.535q-.918,1.152-1.8,2.109A8.89,8.89,0,0,1,54.141-.078a4.063,4.063,0,0,1-.9.391,4.686,4.686,0,0,1-1.035.2,3.573,3.573,0,0,1-1-.059,2.313,2.313,0,0,1-.82-.332A2.057,2.057,0,0,1,49.8-.664,6.788,6.788,0,0,1,49.434-1.8,6.41,6.41,0,0,1,49.3-3.555a8.157,8.157,0,0,1-2.07,2.4A9.246,9.246,0,0,1,45.078.078a8.41,8.41,0,0,1-2.344.508A2.317,2.317,0,0,1,41.563.215,2.917,2.917,0,0,1,40.508-.957a5.447,5.447,0,0,1-.547-2.07,9.366,9.366,0,0,1,.313-3.027,14.482,14.482,0,0,1,1.738-4.336,17.344,17.344,0,0,1,2.6-3.34,11.56,11.56,0,0,1,2.773-2.09,4.39,4.39,0,0,1,2.266-.625,4.743,4.743,0,0,1,1.719.625,1.869,1.869,0,0,1,.723,1.152,2.8,2.8,0,0,1-.645,2.012,9.038,9.038,0,0,1,.918-.156q.371-.039.566-.039a.813.813,0,0,1,.313.039.889.889,0,0,1,.039.332,6.322,6.322,0,0,1-.117.918q-.117.664-.352,1.8t-.625,2.93q-.078.352-.137.645l-.117.586-.137.684-.2.977a4.833,4.833,0,0,0-.02.762,2.824,2.824,0,0,0,.137.762,1.234,1.234,0,0,0,.371.566,1.088,1.088,0,0,0,.723.215,1.855,1.855,0,0,0,1.016-.488,11.392,11.392,0,0,0,1.328-1.25q.7-.762,1.465-1.68t1.426-1.777q.664-.859,1.191-1.523T60-9.336a1.159,1.159,0,0,1,.625-.41.421.421,0,0,1,.469.176.928.928,0,0,1,.059.7A2.931,2.931,0,0,1,60.586-7.773ZM49.141-6.055q.2-.781.469-1.836t.469-2.031q.2-.977.293-1.621t-.059-.605a3.612,3.612,0,0,0-.43.117,2.1,2.1,0,0,1-.508.117,5.271,5.271,0,0,0-.625.117,3.591,3.591,0,0,0,.371-1.035,2.221,2.221,0,0,0,.02-.645.928.928,0,0,0-.156-.43q-.43-.352-1.5.566A13.3,13.3,0,0,0,45-9.961a10.388,10.388,0,0,0-.937,2.168,13.752,13.752,0,0,0-.488,2.168,7.647,7.647,0,0,0-.059,1.777,1.733,1.733,0,0,0,.313,1,1.277,1.277,0,0,0,.977.41,2.62,2.62,0,0,0,1.113-.312,6.4,6.4,0,0,0,1.133-.762,9.084,9.084,0,0,0,1.016-.977,9.625,9.625,0,0,0,.742-.937A2.091,2.091,0,0,0,49.141-6.055ZM69.57.977A3.332,3.332,0,0,1,68.027.645a2.85,2.85,0,0,1-1.035-.879,2.967,2.967,0,0,1-.508-1.27,3.919,3.919,0,0,1,.078-1.543q.117-.547.391-1.465T67.52-6.5q.293-1.074.547-2.148a13.935,13.935,0,0,0,.332-1.953,4.162,4.162,0,0,0-.078-1.445.659.659,0,0,0-.664-.566,2.453,2.453,0,0,0-1.289.41,7.161,7.161,0,0,0-1.348,1.113,16.227,16.227,0,0,0-1.367,1.621q-.684.918-1.348,1.895-.352,1.328-.586,2.324t-.41,1.8q-.176.8-.332,1.406T60.7-.9a1.517,1.517,0,0,1-.7.762,6.159,6.159,0,0,1-1.25.605A3.546,3.546,0,0,1,57.6.7q-.488,0-.41-.352.039-.234.254-1.055t.508-1.934Q58.242-3.75,58.555-5t.586-2.383q.2-.9.43-1.992.2-.937.488-2.187t.684-2.734a2.491,2.491,0,0,1,.566-.371,3.35,3.35,0,0,1,.605-.215,2.748,2.748,0,0,1,.664-.156A5.034,5.034,0,0,1,63.2-15a3.245,3.245,0,0,1,.566.137,1.613,1.613,0,0,1,.527.293q-.117.273-.273.762t-.312,1.035q-.156.625-.391,1.289a17.864,17.864,0,0,1,1.152-1.426,10.277,10.277,0,0,1,1.406-1.309,7.58,7.58,0,0,1,1.621-.957,4.394,4.394,0,0,1,1.758-.371,2.189,2.189,0,0,1,1.328.43,2.848,2.848,0,0,1,.918,1.191,5.269,5.269,0,0,1,.391,1.816A7.088,7.088,0,0,1,71.6-9.8l-.43,1.719q-.2.82-.488,1.934t-.723,2.441a4.241,4.241,0,0,0-.176,1.484q.059.625.762.625a3.163,3.163,0,0,0,1.777-.859,18.658,18.658,0,0,0,2.168-2.07q1.094-1.211,2.07-2.48t1.484-2.051a1.981,1.981,0,0,1,.664-.664.481.481,0,0,1,.488-.039q.176.117.176.527A2.45,2.45,0,0,1,79.063-8.2q-.273.547-.84,1.445T76.875-4.844q-.781,1.016-1.68,2.051A18.2,18.2,0,0,1,73.32-.918,11.508,11.508,0,0,1,71.387.449,3.778,3.778,0,0,1,69.57.977Zm19.3-8.437q-.2,1.211-.371,2.3T88.281-3.4a1.942,1.942,0,0,0,.352,1.406,1.149,1.149,0,0,0,.859.43,2.566,2.566,0,0,0,1.348-.547,15.634,15.634,0,0,0,1.7-1.367q.9-.82,1.8-1.8T96-7.129q.762-.879,1.289-1.543t.723-.859A.889.889,0,0,1,98.5-9.8a.526.526,0,0,1,.41.078.507.507,0,0,1,.156.43,1.519,1.519,0,0,1-.312.781q-.469.742-1.211,1.738T95.9-4.727Q95-3.672,94-2.656a20.682,20.682,0,0,1-1.992,1.8A13.118,13.118,0,0,1,90.1.41,3.6,3.6,0,0,1,88.438.9,1.888,1.888,0,0,1,87.4.586a3.475,3.475,0,0,1-.879-.82,3.949,3.949,0,0,1-.605-1.133,3.2,3.2,0,0,1-.176-1.25q.039-.273.117-.937a16.593,16.593,0,0,1-3.3,2.91A5.889,5.889,0,0,1,79.375.43,2.935,2.935,0,0,1,78.2.156a2.887,2.887,0,0,1-1.113-.9,5.074,5.074,0,0,1-.8-1.641,7.122,7.122,0,0,1-.234-2.461,13.89,13.89,0,0,1,.9-4.3,13.385,13.385,0,0,1,1.973-3.535,9.662,9.662,0,0,1,2.7-2.383,5.948,5.948,0,0,1,3.027-.879,2.288,2.288,0,0,1,1.211.332,3.272,3.272,0,0,1,.938.859,5.241,5.241,0,0,1,.645,1.152,7.074,7.074,0,0,1,.371,1.172q.273-1.133.508-2.227t.469-2.07q.391-1.445.82-3.125.391-1.445.9-3.32t1.133-3.945a3.462,3.462,0,0,1,.742-.469,4.086,4.086,0,0,1,.664-.234,2.1,2.1,0,0,1,.664-.117,2.353,2.353,0,0,1,.7.1.943.943,0,0,1,.527.508,3.464,3.464,0,0,1,.293,1.23,15.609,15.609,0,0,1,0,2.227,18.33,18.33,0,0,1-.605,3.75,35.9,35.9,0,0,1-1.387,4.2q-.859,2.168-1.973,4.336A43.777,43.777,0,0,1,88.867-7.461Zm-2.3.508q.156-.742.293-1.484t.332-1.523a1.277,1.277,0,0,0-.137.078,1.277,1.277,0,0,1-.137.078q-.43.2-.586-.02a1.177,1.177,0,0,1-.156-.684q0-.234-.039-.84a6.29,6.29,0,0,0-.215-1.25,3.491,3.491,0,0,0-.527-1.133,1.136,1.136,0,0,0-.977-.488,2.693,2.693,0,0,0-1.836.918,12.068,12.068,0,0,0-1.758,2.227,15.015,15.015,0,0,0-1.367,2.793,9.671,9.671,0,0,0-.625,2.656,4.668,4.668,0,0,0,.469,2.7,1.7,1.7,0,0,0,1.484.82,2.886,2.886,0,0,0,1.543-.547,10.793,10.793,0,0,0,1.641-1.328,21.2,21.2,0,0,0,1.484-1.6Q86.133-6.406,86.563-6.953Zm17.813-16.055a2.3,2.3,0,0,1-.449.84,2.962,2.962,0,0,1-.742.664,2.409,2.409,0,0,1-.84.332.805.805,0,0,1-.7-.156,1.867,1.867,0,0,1-.859-1.348,2.342,2.342,0,0,1,.352-1.367,3.932,3.932,0,0,1,.977-1.094,2.531,2.531,0,0,1,1.016-.527.823.823,0,0,1,.723.176,1.624,1.624,0,0,1,.449.664,2.877,2.877,0,0,1,.176.918A2.758,2.758,0,0,1,104.375-23.008Zm-5.391,8.32a1.5,1.5,0,0,1,.742-.391,10.262,10.262,0,0,1,1.133-.254,8.692,8.692,0,0,1,1.074-.117,1.935,1.935,0,0,1,.566.02,2.977,2.977,0,0,1-.2.82q-.234.781-.586,1.836t-.742,2.168q-.391,1.113-.586,1.816t-.469,1.582q-.273.879-.488,1.719a11.1,11.1,0,0,0-.293,1.582,2.1,2.1,0,0,0,.117,1.133,1.532,1.532,0,0,0,.43.645.829.829,0,0,0,.508.176,3.688,3.688,0,0,0,1.973-.859,22.067,22.067,0,0,0,2.422-2.051q1.23-1.191,2.285-2.422a24.723,24.723,0,0,0,1.563-1.973,1.5,1.5,0,0,1,.645-.508.566.566,0,0,1,.547.039.632.632,0,0,1,.234.508,1.515,1.515,0,0,1-.254.82,20.723,20.723,0,0,1-1.836,2.6A38.568,38.568,0,0,1,105.2-2.91,23.709,23.709,0,0,1,102.52-.547,4.319,4.319,0,0,1,100.391.469,3.045,3.045,0,0,1,99.082.254a4.128,4.128,0,0,1-1.172-.7A4.039,4.039,0,0,1,97.031-1.5a2.831,2.831,0,0,1-.391-1.27,15.026,15.026,0,0,1,0-2.676,33.315,33.315,0,0,1,.43-3.477,28.512,28.512,0,0,1,.8-3.379A7.278,7.278,0,0,1,98.984-14.687ZM118.359.977a3.332,3.332,0,0,1-1.543-.332,2.85,2.85,0,0,1-1.035-.879,2.967,2.967,0,0,1-.508-1.27,3.919,3.919,0,0,1,.078-1.543q.117-.547.391-1.465t.566-1.992q.293-1.074.547-2.148a13.935,13.935,0,0,0,.332-1.953,4.162,4.162,0,0,0-.078-1.445.659.659,0,0,0-.664-.566,2.453,2.453,0,0,0-1.289.41,7.161,7.161,0,0,0-1.348,1.113,16.227,16.227,0,0,0-1.367,1.621q-.684.918-1.348,1.895-.352,1.328-.586,2.324t-.41,1.8q-.176.8-.332,1.406T109.492-.9a1.517,1.517,0,0,1-.7.762,6.159,6.159,0,0,1-1.25.605A3.546,3.546,0,0,1,106.387.7q-.488,0-.41-.352.039-.234.254-1.055t.508-1.934q.293-1.113.605-2.363t.586-2.383q.2-.9.43-1.992.2-.937.488-2.187t.684-2.734a2.491,2.491,0,0,1,.566-.371,3.35,3.35,0,0,1,.605-.215,2.748,2.748,0,0,1,.664-.156,5.034,5.034,0,0,1,.625.039,3.245,3.245,0,0,1,.566.137,1.613,1.613,0,0,1,.527.293q-.117.273-.273.762t-.312,1.035q-.156.625-.391,1.289a17.863,17.863,0,0,1,1.152-1.426,10.277,10.277,0,0,1,1.406-1.309,7.58,7.58,0,0,1,1.621-.957,4.394,4.394,0,0,1,1.758-.371,2.189,2.189,0,0,1,1.328.43,2.848,2.848,0,0,1,.918,1.191,5.269,5.269,0,0,1,.391,1.816,7.088,7.088,0,0,1-.293,2.3l-.43,1.719q-.2.82-.488,1.934t-.723,2.441a4.241,4.241,0,0,0-.176,1.484q.059.625.762.625a3.163,3.163,0,0,0,1.777-.859,18.658,18.658,0,0,0,2.168-2.07q1.094-1.211,2.07-2.48t1.484-2.051a1.981,1.981,0,0,1,.664-.664.481.481,0,0,1,.488-.039q.176.117.176.527a2.451,2.451,0,0,1-.312,1.035q-.273.547-.84,1.445t-1.348,1.914q-.781,1.016-1.68,2.051a18.2,18.2,0,0,1-1.875,1.875A11.508,11.508,0,0,1,120.176.449,3.778,3.778,0,0,1,118.359.977Zm17.188,4.609-.488,2.344q-.293,1.406-.664,2.969T133.535,14a21.673,21.673,0,0,1-1.074,2.773,8.376,8.376,0,0,1-1.289,2.012,2.075,2.075,0,0,1-1.562.781,3.344,3.344,0,0,1-2.207-.762,6.442,6.442,0,0,1-1.543-1.914,9.438,9.438,0,0,1-.918-2.48,11.476,11.476,0,0,1-.293-2.461,10.375,10.375,0,0,1,.273-2.6,5.888,5.888,0,0,1,.957-1.973,13.313,13.313,0,0,1,1.855-1.992q1.172-1.055,3.008-2.617.9-.781,1.719-1.484T134.023,0q.2-.781.371-1.465t.293-1.23a9.562,9.562,0,0,1-2.441,2.3,5.8,5.8,0,0,1-3.262.938,3.16,3.16,0,0,1-2.715-1.5,7.827,7.827,0,0,1-1.035-4.434,12.041,12.041,0,0,1,.547-3.32,14.2,14.2,0,0,1,1.563-3.516,10.215,10.215,0,0,1,2.5-2.773,5.338,5.338,0,0,1,3.32-1.133,2.555,2.555,0,0,1,1.484.43,3.945,3.945,0,0,1,1.055,1.074,5.531,5.531,0,0,1,.664,1.367,10.919,10.919,0,0,1,.352,1.348,2.97,2.97,0,0,0,.117-.488,2.051,2.051,0,0,1,.117-.449,4.407,4.407,0,0,1,.879-1.816,1.989,1.989,0,0,1,1.465-.488,1.954,1.954,0,0,1,.918.2q.371.2.371.352-.2.43-.312.664t-.234.488a5,5,0,0,0-.234.645q-.117.391-.312,1.133-.078.273-.293,1.27t-.547,2.363q-.332,1.367-.7,3.008t-.723,3.2a20.321,20.321,0,0,0,2.266-1.523q1.172-.9,2.227-1.836t1.875-1.777A12.717,12.717,0,0,0,144.8-8.359a1.876,1.876,0,0,1,.7-.664,1.075,1.075,0,0,1,.684-.137.414.414,0,0,1,.352.352,1.217,1.217,0,0,1-.254.8A17.149,17.149,0,0,1,144.1-5.215a36.277,36.277,0,0,1-2.637,2.5,32.625,32.625,0,0,1-2.617,2.031Q137.578.2,136.68.742q-.391,1.758-.664,2.852T135.547,5.586Zm-4.922-7.7a2.969,2.969,0,0,0,1.543-.43,7.082,7.082,0,0,0,1.309-1,7.069,7.069,0,0,0,.977-1.152q.391-.586.586-.937.156-.352.371-.937a8.426,8.426,0,0,0,.332-1.133,3.871,3.871,0,0,0,.1-.977q-.02-.43-.293-.469a.514.514,0,0,1-.371-.312,2.708,2.708,0,0,1-.215-.625,4.349,4.349,0,0,1-.1-.7q-.02-.352-.059-.625a4.43,4.43,0,0,0-.664-1.992,1.324,1.324,0,0,0-1.055-.625,2.762,2.762,0,0,0-1.855.781,7.586,7.586,0,0,0-1.562,2.012,11.768,11.768,0,0,0-1.074,2.7,10.842,10.842,0,0,0-.391,2.793,6.251,6.251,0,0,0,.469,2.637A1.935,1.935,0,0,0,130.625-2.109Zm-1.8,18.125q.781,0,1.27-1.152a26.1,26.1,0,0,0,1.035-3.145q.117-.469.332-1.348t.508-2.012q.293-1.133.605-2.441t.664-2.637l-.645.566a8.45,8.45,0,0,0-.684.684l-1.66,1.582a12.567,12.567,0,0,0-1.426,1.6,7.477,7.477,0,0,0-1,1.816,6.358,6.358,0,0,0-.371,2.266,18.49,18.49,0,0,0,.1,2.109,5.742,5.742,0,0,0,.273,1.289,1.326,1.326,0,0,0,.43.645A.972.972,0,0,0,128.828,16.016Z" transform="translate(0.195 29.932)" fill="#ebedef"/>
</svg>
