<svg xmlns="http://www.w3.org/2000/svg" width="69.089" height="48.264" viewBox="0 0 69.089 48.264">
  <path id="Path_71" data-name="Path 71" d="M.781-4.062A2.762,2.762,0,0,1,.176-4.9a4.055,4.055,0,0,1-.254-.8,2.383,2.383,0,0,1,0-.859A3.6,3.6,0,0,1,.391-7.578a4.842,4.842,0,0,1,.742-.879,5.086,5.086,0,0,1,1.25-.84q.508-1.25.918-2.637t.723-2.52q.352-1.328.625-2.656a21.565,21.565,0,0,0,1.016-5.41,18.046,18.046,0,0,0-.078-2.754l-.078-.547a4.409,4.409,0,0,1-.137-.527q-.059-.293-.137-.566.43-.234.762-.391a5.344,5.344,0,0,1,.566-.234A2.235,2.235,0,0,1,7.07-27.7a9.055,9.055,0,0,1,1.7-.215q.8-.02.879.293.039.2.1.7a11.178,11.178,0,0,1,.059,1.25A13.223,13.223,0,0,1,9.688-24a11.582,11.582,0,0,1-.43,1.934q-.273.9-.742,2.5-.43,1.367-1.133,3.652t-1.836,5.84q1.172-.391,2.578-.742T11-11.406q1.465-.234,2.93-.352a19.171,19.171,0,0,1,2.715-.039.339.339,0,0,1,.332.215.541.541,0,0,1,0,.449,1.065,1.065,0,0,1-.43.449,2,2,0,0,1-.957.254q-.781.078-1.719.176t-1.934.273q-1,.176-1.973.43a14.446,14.446,0,0,0-1.836.605L6.8-8.477q-.547.2-1.152.449t-1,.449l-.9,2.852a15.035,15.035,0,0,1,3.5,3.281A13.875,13.875,0,0,1,9.023,1.641a9.831,9.831,0,0,1,.742,3.2A12.279,12.279,0,0,1,9.258,8.3a17.568,17.568,0,0,1-1.348,3.32A18.093,18.093,0,0,1,5.957,14.57a15.33,15.33,0,0,1-2.344,2.344,10.033,10.033,0,0,1-2.5,1.484,5.041,5.041,0,0,1-2.4.391,2.466,2.466,0,0,1-1.367-.527,2.77,2.77,0,0,1-.82-1.133,4.661,4.661,0,0,1-.312-1.523,5.941,5.941,0,0,1,.156-1.66q.156-.82.664-3.047.43-1.875,1.328-5.449T.781-4.062Zm2.3,1.836Q2.539-.273,2.129,1.367T1.445,4.258Q1.094,5.7.9,6.875.547,8.359.176,9.8T-.41,12.4a8.15,8.15,0,0,0-.176,1.855q.039.7.508.7a3.487,3.487,0,0,0,2.363-.879A10.9,10.9,0,0,0,4.531,11.66,15.314,15.314,0,0,0,6.211,8.5a8.691,8.691,0,0,0,.664-3.145,10.179,10.179,0,0,0-.508-3.164,13.273,13.273,0,0,0-.82-1.6Q5.117-.078,4.512-.84A8.011,8.011,0,0,0,3.086-2.227ZM11.523-.2a1.373,1.373,0,0,1-.605.566.778.778,0,0,1-.586.039A.545.545,0,0,1,10,0a1.166,1.166,0,0,1,.156-.781l.527-1.055q.41-.82.977-1.973t1.23-2.5q.664-1.348,1.27-2.559t1.113-2.168q.508-.957.742-1.387-.43-.391-.586-.566a1.566,1.566,0,0,1-.234-.762,2.742,2.742,0,0,1,.234-1.328,7.949,7.949,0,0,1,.82-1.582,6.559,6.559,0,0,1,1.133-1.309,1.874,1.874,0,0,1,1.211-.547,1.688,1.688,0,0,1,1.543.7,3.312,3.312,0,0,1,.527,1.445,3.816,3.816,0,0,1-.078,1.289A3.752,3.752,0,0,1,20-13.672a2.988,2.988,0,0,0,.313.176,1.482,1.482,0,0,0,.625.1,3.384,3.384,0,0,0,.879-.078,2.967,2.967,0,0,1,.8-.078,1.737,1.737,0,0,1,1.094.332,2.676,2.676,0,0,1,.7.82,4.13,4.13,0,0,1,.41,1.055A6.887,6.887,0,0,1,25-10.312a3.2,3.2,0,0,1-.508,2.031q-.625,1.055-1.523,2.3-.547.781-1.094,1.758a3.032,3.032,0,0,0-.469,1.758,2.168,2.168,0,0,0,.273.82q.2.313,1.094.313a2.868,2.868,0,0,0,1.465-.488,10.973,10.973,0,0,0,1.641-1.25,22.545,22.545,0,0,0,1.66-1.68q.82-.918,1.523-1.8t1.191-1.582q.488-.7.723-1.016a1.012,1.012,0,0,1,.508-.43.664.664,0,0,1,.547,0,.589.589,0,0,1,.293.469,1.5,1.5,0,0,1-.293.938q-.234.391-.8,1.25T29.863-5q-.8,1.055-1.777,2.168A20.1,20.1,0,0,1,26.035-.8,12.659,12.659,0,0,1,23.887.7a4.291,4.291,0,0,1-2.051.586A3.272,3.272,0,0,1,20.156.9a3.483,3.483,0,0,1-1.074-.957,3.67,3.67,0,0,1-.586-1.25,4.029,4.029,0,0,1-.137-1.27,3.4,3.4,0,0,1,.254-1q.215-.527.508-1.094T19.746-5.8q.332-.566.605-1.113.664-1.133,1.074-1.934a3.105,3.105,0,0,0,.41-1.348,1.237,1.237,0,0,0-.156-.625.54.54,0,0,0-.508-.273,1.93,1.93,0,0,0-.332.02.994.994,0,0,1-.2.02,2.646,2.646,0,0,0-.273.02,5.207,5.207,0,0,1-.527.02,2.112,2.112,0,0,1-.859-.156,4.086,4.086,0,0,0-.664-.234q-.156.273-.7,1.172t-1.27,2.109q-.723,1.211-1.523,2.539t-1.5,2.48L12.129-1.152Q11.641-.352,11.523-.2ZM34.1.625A5.421,5.421,0,0,1,31.68.156,4.154,4.154,0,0,1,30.215-1a4.19,4.19,0,0,1-.742-1.484,5.693,5.693,0,0,1-.215-1.465,16.832,16.832,0,0,1,.2-2.48q.2-1.309.469-2.422t.488-1.895q.215-.781.293-.977a7.462,7.462,0,0,1,.918-1.973A2.859,2.859,0,0,1,33.2-14.844q.391-.078.82-.156a6.541,6.541,0,0,1,.723-.039,1.932,1.932,0,0,1,.684.117q-1.055,2.7-1.66,4.492T32.852-7.5a13.375,13.375,0,0,0-.43,2.07,4.489,4.489,0,0,0,.313,2.656,2.171,2.171,0,0,0,2.07.9,3.063,3.063,0,0,0,1.953-.762,8.324,8.324,0,0,0,1.719-1.973A6.981,6.981,0,0,1,38.359-5.9a13.731,13.731,0,0,1,.215-2.441q.215-1.191.508-2.227a18.12,18.12,0,0,1,.625-1.855q.332-.82.566-1.289a2.739,2.739,0,0,1,.781-1.152,2.5,2.5,0,0,1,1.133-.254,2.519,2.519,0,0,1,.527-.02,2.473,2.473,0,0,1,.371.059q.469.117.469.469,0,.625-.078,1.875a11.727,11.727,0,0,1-.469,2.578Q42.734-9.062,42.48-8.3t-.488,1.289a5.1,5.1,0,0,1-.469.859q-.234.332-.43.605.078,1.172.2,1.875A4.246,4.246,0,0,0,41.582-2.6a1.066,1.066,0,0,0,.43.508,1.175,1.175,0,0,0,.566.137,2.352,2.352,0,0,0,1.289-.527A12.246,12.246,0,0,0,45.41-3.809q.8-.8,1.6-1.758t1.465-1.816q.664-.859,1.133-1.5t.586-.8a1.163,1.163,0,0,1,.527-.43.405.405,0,0,1,.41.059.6.6,0,0,1,.176.43,1.179,1.179,0,0,1-.176.645A30.374,30.374,0,0,1,49.2-5.84a27.56,27.56,0,0,1-2.461,3.066A17.142,17.142,0,0,1,44.1-.43a4.4,4.4,0,0,1-2.5.938,2.05,2.05,0,0,1-1.66-.723A6.117,6.117,0,0,1,38.906-2.3,6.866,6.866,0,0,1,36.8-.137,4.959,4.959,0,0,1,34.1.625Zm26.68.547q-.078-.586-1-.9A11.12,11.12,0,0,0,57.773-.2q-1.289-.156-2.852-.2a17.751,17.751,0,0,0-2.109.117,9.829,9.829,0,0,0-1.66.293,2.267,2.267,0,0,0-1.113.566,1.51,1.51,0,0,1-1.328.2A1.566,1.566,0,0,1,47.617-.547a4.249,4.249,0,0,0-.234-.82q-.117-.313-.254-.664a1.567,1.567,0,0,0-.332-.547,14.829,14.829,0,0,1,1.27-2.109A19.615,19.615,0,0,1,49.59-6.523a24.952,24.952,0,0,1,1.875-1.8q1.035-.9,2.324-2.031a32.648,32.648,0,0,0,2.559-2.422,21.942,21.942,0,0,0,2.5-3.164A20.126,20.126,0,0,0,60.8-19.785a14.486,14.486,0,0,0,.918-4.512,3.73,3.73,0,0,0-.684-2.773,2.539,2.539,0,0,0-1.895-.781,2.4,2.4,0,0,0-1.25.449,5.7,5.7,0,0,0-1.348,1.25A8.919,8.919,0,0,0,55.41-24.3a5.7,5.7,0,0,0-.527,2.227,1.457,1.457,0,0,0,.039.586,4.6,4.6,0,0,0,.176.449.685.685,0,0,0,.332.332,3.255,3.255,0,0,1-1.25.664,2.422,2.422,0,0,1-.586.078,5.6,5.6,0,0,1-.742-.059,2.167,2.167,0,0,1-.8-.273,1.751,1.751,0,0,1-.625-.645,2.081,2.081,0,0,1-.215-1.172,5.639,5.639,0,0,1,.645-1.992,8.767,8.767,0,0,1,1.836-2.441,11.164,11.164,0,0,1,3.066-2.051,10.042,10.042,0,0,1,4.3-.859,3.949,3.949,0,0,1,2.52.7,4.066,4.066,0,0,1,1.27,1.68,5.9,5.9,0,0,1,.43,1.973q.039,1,0,1.621a10.413,10.413,0,0,1-.762,3.359,20.1,20.1,0,0,1-1.758,3.4,31.245,31.245,0,0,1-2.422,3.281q-1.348,1.6-2.715,3.008T54.941-7.852Q53.633-6.68,52.656-5.859a8.086,8.086,0,0,0-1.621,1.8,8.4,8.4,0,0,0-.84,1.68,15.463,15.463,0,0,1,2.578-.937,13.673,13.673,0,0,1,3.75-.469,20.954,20.954,0,0,1,2.3.117,10.293,10.293,0,0,1,1.719.293,2.1,2.1,0,0,1,1.133.605,4.4,4.4,0,0,1,.078.781,5.359,5.359,0,0,1-.039.664A3.825,3.825,0,0,1,61.6-.7a5.754,5.754,0,0,1-.2.625A6.952,6.952,0,0,1,60.781,1.172Z" transform="translate(3.796 29.453)" fill="#ebedef"/>
</svg>
