<svg xmlns="http://www.w3.org/2000/svg" width="24" height="24" viewBox="0 0 24 24"><title>clipboard</title><g fill="#ebedef" class="nc-icon-wrapper"><g fill="none" fill-rule="evenodd"><path fill="#ebedef" fill-rule="nonzero" d="M10 4.5a.5.5 0 0 1-1 0A1.5 1.5 0 0 1 10.5 3h3A1.5 1.5 0 0 1 15 4.5a.5.5 0 1 1-1 0 .5.5 0 0 0-.5-.5h-3a.5.5 0 0 0-.5.5zM7.5 4a.5.5 0 0 1 0 1A1.5 1.5 0 0 0 6 6.5v12A1.5 1.5 0 0 0 7.5 20h9a1.5 1.5 0 0 0 1.5-1.5v-12A1.5 1.5 0 0 0 16.5 5a.5.5 0 1 1 0-1A2.5 2.5 0 0 1 19 6.5v12a2.5 2.5 0 0 1-2.5 2.5h-9A2.5 2.5 0 0 1 5 18.5v-12A2.5 2.5 0 0 1 7.5 4z"></path><path fill="#ebedef" fill-rule="nonzero" d="M8.5 10a.5.5 0 0 1 0-1h7a.5.5 0 1 1 0 1h-7zm0 3a.5.5 0 1 1 0-1h7a.5.5 0 1 1 0 1h-7zm0 3a.5.5 0 1 1 0-1h5a.5.5 0 1 1 0 1h-5z"></path></g></g></svg>